<svg height="512" viewBox="0 0 44 60" width="512" xmlns="http://www.w3.org/2000/svg"><g id="Page-1" fill="none" fill-rule="evenodd"><g id="011---Coat" fill-rule="nonzero"><path id="Shape" d="m22 21v38c-4.6265502.0787408-9.2468334-.3742281-13.77-1.35-.55719922-.1325266-1.03117812-.4969075-1.30248746-1.0013136s-.31407249-1.1007287-.11751254-1.6386864c.25-.67.54-1.51.85-2.55l5.62 1.38c.467196.1023131.9401543-.1468346 1.12-.59.5969945-1.38484 1.0007746-2.8451778 1.2-4.34.189462-1.2627069.312963-2.5344329.37-3.81.0454536-.5435532-.3248622-1.0344368-.86-1.14l-5.14-.81.03-.15c.6783268-3.5717117.9733324-7.2056444.88-10.84-1.81832843 2.5958784-3.12499598 5.5146682-3.85 8.6l-5.43-1.36c2.31-16.2 5.8-22.34 7.46-24.43.43288286.6470938 1.1614741 1.0339232 1.94 1.03 2.91 0 10.5 0 10.98 4.55.01.14.02.29.02.45z" fill="#ff9801"/><path id="Shape" d="m11.327 53.36-3.667-.9c-.071.24-.142.466-.211.685l2.831.7c.4180615.0895107.8449336-.1082286 1.047-.485z" fill="#f57c00"/><path id="Shape" d="m21.98 20.55c-.48-4.55-8.07-4.55-10.98-4.55-.7785259.0039232-1.50711714-.3829062-1.94-1.03-.215.271-.461.611-.731 1.031 3.107 0 10.188.156 10.651 4.549.01.14.02.29.02.45v37.942c.951.034 1.938.058 3 .058v-38c0-.16-.01-.31-.02-.45z" fill="#f57c00"/><path id="Shape" d="m7.03 40.76c-.42 1.62-.7 3.05-.85 4.01-.05067115.2984513-.23381089.5578841-.49807025.7055585-.26425937.1476743-.58118973.1676924-.86192975.0544415l-3.11-1.24c-.41980255-.1756761-.67265876-.6079786-.62-1.06.16-1.34.33-2.61.51-3.83z" fill="#ffe0b2"/><path id="Shape" d="m1.6 39.4c-.035.237-.068.485-.1.726l2.532.634c-.42 1.62-.7 3.05-.85 4.01-.006.033-.019.063-.028.095l1.668.665c.28074002.1132509.59767038.0932328.86192975-.0544415.26425936-.1476744.4473991-.4071072.49807025-.7055585.15-.96.43-2.39.85-4.01z" fill="#dfc49c"/><path id="Shape" d="m36 11c-.0034505 1.3928151-.3687161 2.7608381-1.06 3.97-.4328829.6470938-1.1614741 1.0339232-1.94 1.03-2.91 0-10.5 0-10.98 4.55.18-4.96 3.45-8.33 5.74-10.09-1.38-2.46-5.76-2.46-5.76-2.46s-4.38 0-5.76 2.46c2.29 1.76 5.56 5.13 5.74 10.09-.48-4.55-8.07-4.55-10.98-4.55-.7785259.0039232-1.50711714-.3829062-1.94-1.03-.69128392-1.2091619-1.05654951-2.5771849-1.06-3.97 0-10 14-10 14-10s14 0 14 10z" fill="#ffe0b2"/><path id="Shape" d="m22 1s-.582 0-1.5.085c3.609.328 12.5 1.943 12.5 9.915-.0034505 1.3928151-.3687161 2.7608381-1.06 3.97-.4328829.6470938-1.1614741 1.0339232-1.94 1.03-2.4257455-.0842928-4.8509134.1831493-7.2.794-.4698923 1.199157-.7342635 2.4689501-.782 3.756.482-4.55 8.072-4.55 10.982-4.55.7785259.0039232 1.5071171-.3829062 1.94-1.03.6912839-1.2091619 1.0565495-2.5771849 1.06-3.97 0-10-14-10-14-10z" fill="#dfc49c"/><path id="Shape" d="m15.97 45.1c-.057037 1.2755671-.180538 2.5472931-.37 3.81l-6.58-1.46c.32-1.29.63-2.72.95-4.3l5.14.81c.5351378.1055632.9054536.5964468.86 1.14z" fill="#ff5722"/><path id="Shape" d="m15.11 43.96-5.14-.81c-.032.16-.064.3-.1.458l2.236.352c.5351378.1055632.9054536.5964468.86 1.14-.034.768-.118 1.914-.283 3.164l2.913.646c.189462-1.2627069.312963-2.5344329.37-3.81.0457492-.5422925-.3224686-1.0326761-.856-1.14z" fill="#d84315"/><path id="Shape" d="m15.6 48.91c-.1992254 1.4948222-.6030055 2.95516-1.2 4.34-.1798457.4431654-.652804.6923131-1.12.59l-5.62-1.38c.42-1.34.88-3 1.36-5.01z" fill="#ff5722"/><path id="Shape" d="m9.02 47.45c-.052.22-.1.42-.156.631l3.736.829c-.1992254 1.4948222-.6030055 2.95516-1.2 4.34-.0219996.038163-.0463812.0749024-.073.11l1.953.48c.467196.1023131.9401543-.1468346 1.12-.59.5969945-1.38484 1.0007746-2.8451778 1.2-4.34z" fill="#d84315"/><path id="Shape" d="m34.98 47.45-6.58 1.46c-.189462-1.2627069-.312963-2.5344329-.37-3.81-.0454536-.5435532.3248622-1.0344368.86-1.14l5.14-.81c.32 1.58.63 3.01.95 4.3z" fill="#ff5722"/><path id="Shape" d="m34.03 43.15-2.9.458c.286 1.392.566 2.683.854 3.842l-3.668.814c.029.215.054.426.088.646l6.58-1.46c-.324-1.29-.634-2.72-.954-4.3z" fill="#d84315"/><path id="Shape" d="m36.34 52.46-5.62 1.38c-.467196.1023131-.9401543-.1468346-1.12-.59-.5969945-1.38484-1.0007746-2.8451778-1.2-4.34l6.58-1.46c.48 2.01.94 3.67 1.36 5.01z" fill="#ff5722"/><path id="Shape" d="m34.98 47.45-2.844.631c.423 1.722.83 3.186 1.2 4.379l-3.667.9c.2035985.3748429.6301179.5703819 1.047.48l5.62-1.38c-.416-1.34-.876-3-1.356-5.01z" fill="#d84315"/><path id="Shape" d="m27.76 10.46c-2.29 1.76-5.56 5.13-5.74 10.09-.0166388.1493905-.0233203.2997225-.02.45 0-.16-.01-.31-.02-.45-.18-4.96-3.45-8.33-5.74-10.09 1.38-2.46 5.76-2.46 5.76-2.46s4.38 0 5.76 2.46z" fill="#825a2c"/><path id="Shape" d="m22 8c-.5025801.01068227-1.0038002.05646036-1.5.137 1.4.221 3.406.8 4.26 2.323-1.7337283 1.3075349-3.1831539 2.9543002-4.26 4.84.9017759 1.6086105 1.4090017 3.4082339 1.48 5.251.01.14.02.29.02.45-.0033203-.1502775.0033612-.3006095.02-.45.18-4.96 3.45-8.33 5.74-10.09-1.38-2.461-5.76-2.461-5.76-2.461z" fill="#624421"/><path id="Shape" d="m37.19 55.01c.1965599.5379577.1537968 1.1342803-.1175125 1.6386864-.2713094.5044061-.7452883.868787-1.3024875 1.0013136-4.5231666.9757719-9.1434498 1.4287408-13.77 1.35v-38c-.0033203-.1502775.0033612-.3006095.02-.45.48-4.55 8.07-4.55 10.98-4.55.7785259.0039232 1.5071171-.3829062 1.94-1.03 1.66 2.09 5.15 8.23 7.46 24.43l-5.43 1.36c-.725004-3.0853318-2.0316716-6.0041216-3.85-8.6-.0933324 3.6343556.2016732 7.2682883.88 10.84l.03.15-5.14.81c-.5351378.1055632-.9054536.5964468-.86 1.14.057037 1.2755671.180538 2.5472931.37 3.81.1992254 1.4948222.6030055 2.95516 1.2 4.34.1798457.4431654.652804.6923131 1.12.59l5.62-1.38c.31 1.04.6 1.88.85 2.55z" fill="#ff9801"/><path id="Shape" d="m39.4 39.4-2.627.658c.067.236.136.473.2.7l5.427-1.358c-2.31-16.2-5.8-22.34-7.46-24.43-.4328829.6470938-1.1614741 1.0339232-1.94 1.03h-.329c1.814 2.821 4.718 9.3 6.729 23.4z" fill="#f57c00"/><path id="Shape" d="m36.34 52.46-2.789.685c.23.731.447 1.349.639 1.865.1965599.5379577.1537968 1.1342803-.1175125 1.6386864-.2713094.5044061-.7452883.868787-1.3024875 1.0013136-3.539726.7782068-7.1466467 1.2109033-10.77 1.292v.058c4.6265502.0787408 9.2468334-.3742281 13.77-1.35.5571992-.1325266 1.0311781-.4969075 1.3024875-1.0013136.2713093-.5044061.3140724-1.1007287.1175125-1.6386864-.25-.67-.54-1.51-.85-2.55z" fill="#f57c00"/><path id="Shape" d="m42.91 43.23c.0526588.4520214-.2001975.8843239-.62 1.06l-3.11 1.24c-.28074.1132509-.5976704.0932328-.8619297-.0544415-.2642594-.1476744-.4473991-.4071072-.4980703-.7055585-.15-.96-.43-2.39-.85-4.01l5.43-1.36c.18 1.22.35 2.49.51 3.83z" fill="#ffe0b2"/><path id="Shape" d="m42.4 39.4-2.9.726c.142 1 .279 2.024.408 3.1.0526588.4520214-.2001975.8843239-.62 1.06l-1.442.575c.0752555.2739062.2634471.502883.5175911.6297642.2541439.1268812.550256.1396926.8144089.0352358l3.11-1.24c.4198025-.1756761.6726588-.6079786.62-1.06-.158-1.336-.328-2.606-.508-3.826z" fill="#dfc49c"/><g fill="#000"><path id="Shape" d="m37.955 57.122c.4051625-.7565666.4681032-1.6501069.173-2.456-.8619426-2.433901-1.5870751-4.9141079-2.172-7.429-.319-1.324-.645-2.786-.974-4.426-.4465424-2.2933405-.7173295-4.6174287-.81-6.952 1.2832895 2.8999566 2.1793173 5.9562015 2.665 9.09.1692986.9553076.999807 1.6513326 1.97 1.651.2548223.0002971.5072372-.0493027.743-.146l3.115-1.241c.8338778-.3474069 1.3374361-1.2044753 1.235-2.102-2.122-17.692-5.616-25.161-7.76-28.2.5764409-1.2226408.8703677-2.5593243.86-3.911 0-8.7-9.812-11-15-11s-15 2.3-15 11c-.01130126 1.3515543.2819553 2.6882984.858 3.911-2.145 3.039-5.639 10.508-7.758 28.209-.10049243.8991882.40712139 1.7560926 1.244 2.1l3.1 1.237c.56280312.2280251 1.19872298.1880054 1.72849882-.108778s.89602369-.8181836.99550118-1.417222c.48585236-3.1296595 1.38119609-6.1818301 2.663-9.078-.09267053 2.3345713-.36345755 4.6586595-.81 6.952-.329 1.64-.655 3.1-.974 4.425-.58492488 2.5148921-1.3100574 4.995099-2.172 7.429-.29902564.8065019-.23748718 1.7025601.168987 2.4606106.40647418.7580504 1.11877765 1.3051619 1.956013 1.5023894 4.5980097.9970579 9.2958335 1.459458 14 1.378 4.7041665.081458 9.4019903-.3809421 14-1.378.835515-.1988363 1.5466313-.7444498 1.955-1.5zm-8.927-12.074c0-.065.026-.1.018-.1l4.2-.662c.177.846.353 1.651.528 2.407l-4.529 1.007c-.133-1.126-.192-2.1-.217-2.652zm5.214 3.59c.29 1.153.57 2.182.836 3.095l-4.573 1.093c-.4413408-1.0076772-.760607-2.0645123-.951-3.148zm4.565-4.028c-.122-.756-.325-1.853-.628-3.122l3.39-.849c.12.881.238 1.782.351 2.722zm-16.807-42.61c.531 0 13 .122 13 9 0 .04-.086 4-2 4-2.3113571-.0650672-4.6218903.1559433-6.879.658-.7112969.1807834-1.4017233.4355039-2.06.76 1.4459697-2.7525772 3.6672552-5.0207986 6.389-6.524.4940187-.24852814.6930281-.85048129.4445-1.34449999-.2485281-.49401871-.8504813-.69302814-1.3445-.44450001-.5526863.29138407-1.0870188.61632499-1.6.973-2.002-2.047-5.77-2.078-5.95-2.078s-3.948.031-5.952 2.078c-.5129812-.35667501-1.0473137-.68161593-1.6-.973-.4942948-.24687127-1.0951287-.04629483-1.342.44800001s-.0462948 1.0951287.448 1.34199999c2.7302181 1.4970511 4.9568782 3.7678964 6.4 6.527-.6602948-.3264634-1.3531094-.58254-2.067-.764-2.2597255-.5026432-4.5729778-.7236567-6.887-.658-1.934 0-2-3.961-2-4 0-8.878 12.47-9 13-9zm0 14.093c-.9780925-2.2375648-2.4652563-4.2157699-4.343-5.777 2.6294641-1.75474216 6.0565359-1.75474216 8.686 0-1.8777437 1.5612301-3.3649075 3.5394352-4.343 5.777zm-16.81 28.507-3.107-1.252c.112-.936.229-1.833.348-2.71l3.389.849c-.304 1.267-.507 2.361-.63 3.113zm4.568 4.037 4.688 1.04c-.1969007 1.0931903-.507936 2.1627096-.928 3.191l-4.6-1.129c.26866667-.914.54866667-1.9476667.84-3.101zm5-.94-4.53-1.005c.1746667-.7566667.3506667-1.5593333.528-2.408l4.185.657c.0273592.0312272.0394475.0729867.033.114-.027.545-.086 1.519-.219 2.645zm-6.948 8.477c-.13654565-.2533492-.15731615-.5532461-.057-.823.175-.479.373-1.054.582-1.7l4.71 1.156c.1514841.0375253.3069376.0566631.463.057.7829032-.0083949 1.4878119-.4759843 1.8-1.194.640831-1.4699153 1.0726901-3.0223192 1.283-4.612.1943786-1.2958865.3215488-2.6009659.381-3.91.0764828-1.055175-.6579977-1.9970381-1.7-2.18l-4.131-.651c1.0344397-6.4691731.9800229-13.0657728-.161-19.517-.0593016-.3606322-.3106176-.6601885-.6554537-.7812685-.34483607-.12108-.72825901-.0443954-1 .2s-.38851102.6175689-.3045463.9732685c.49940872 2.8632377.78121488 5.7601917.843 8.666-1.60056897 2.3476695-2.79458035 4.947991-3.532 7.692l-3.616-.906c2.027-13.552 4.857-19.637 6.5-22.166.53045559.3463251 1.1515264.5279491 1.785.522 2.1394997-.0622146 4.2786066.1365846 6.37.592 2.9.762 3.479 2.091 3.6 2.905.008.169.031.33.031.5v36.989c-4.2142122.021777-8.418179-.4171632-12.537-1.309-.28116322-.0647207-.52067185-.2477242-.657-.502zm27.73.5c-4.1196895.8930626-8.3246754 1.3330101-12.54 1.312v-36.986c0-.173.023-.335.032-.5.118-.814.7-2.142 3.6-2.9 2.0904228-.4578715 4.2288435-.6593559 6.368-.6.6341632.0083331 1.2565008-.1719638 1.788-.518 1.64 2.53 4.469 8.613 6.5 22.166l-3.617.906c-.7368596-2.7440356-1.93055-5.3443942-3.531-7.692.0609955-2.9043948.341798-5.8000034.84-8.662.0839647-.3556996-.0328053-.7288731-.3045463-.9732685s-.6551639-.32108-1-.2-.5961521.4206363-.6554537.7812685c-1.1390342 6.4515619-1.191423 13.0481611-.155 19.517l-4.13.651c-1.0396677.1818734-1.7736844 1.1201194-1.7 2.173.059095 1.3117145.1862662 2.6194754.381 3.918.2101786 1.5852697.6403179 3.1335019 1.278 4.6.3118101.7191691 1.0162247 1.1887788 1.8 1.2.1560266.0000684.3114889-.0187348.463-.056l4.71-1.156c.209.643.407 1.218.582 1.7.1009747.2699654.0805529.5703713-.0560289.8241875-.1365819.2538161-.3760395.4363559-.6569711.5008125z"/><path id="Shape" d="m17.168 21.445c-1.1354137 2.013562-1.8179449 4.2505582-2 6.555h-.168c-.5522847 0-1 .4477153-1 1s.4477153 1 1 1h.021c-.012.325-.021.656-.021 1 0 .5522847.4477153 1 1 1s1-.4477153 1-1c0-.3446667.0066667-.678.02-1 .5444587-.0108913.9801089-.4554324.98-1-.003977-.4758536-.3472532-.88097-.816-.963.173216-1.9215891.7349022-3.7879796 1.651-5.486.3054134-.4603293.1798293-1.0810865-.2805-1.3865-.4603294-.3054134-1.0810865-.1798293-1.3865.2805z"/><path id="Shape" d="m28 32c.5522847 0 1-.4477153 1-1 0-.344-.009-.675-.021-1h.021c.5522847 0 1-.4477153 1-1s-.4477153-1-1-1h-.173c-.1805155-2.304058-.8613335-4.5410315-1.995-6.555-.3062648-.4574105-.9246184-.5812847-1.3834441-.2771441s-.5855658.9219131-.2835559 1.3821441c.9155315 1.6986135 1.4771778 3.5652114 1.651 5.487-.4687468.08203-.812023.4871464-.816.963-.0001089.5445676.4355413.9891087.98 1 .0133333.324.02.6573333.02 1 0 .5522847.4477153 1 1 1z"/></g></g></g></svg>