<svg id="Capa_1" enable-background="new 0 0 507.763 507.763" height="512" viewBox="0 0 507.763 507.763" width="512" xmlns="http://www.w3.org/2000/svg"><path d="m399.605 257.458h-291.447l-77.817-44.468c-2.261-1.292-3.123-4.122-1.967-6.455l68.469-138.132c.846-1.707 2.146-3.148 3.758-4.165l84.317-53.211c6.941-4.38 15.727-4.723 22.931-.79 33.897 18.508 64.913 18.751 93.136 1.291 7.376-4.563 16.741-4.398 24.051.268l82.159 52.445c1.591 1.015 2.874 2.446 3.713 4.137l68.482 138.158c1.156 2.333.294 5.163-1.967 6.455z" fill="#fe9738"/><path d="m170.621 20.048-70.021 44.19c-1.611 1.017-2.911 2.458-3.758 4.165l-68.468 138.132c-1.156 2.333-.294 5.163 1.967 6.455l77.818 44.467h62.463v-237.409z" fill="#fe860a"/><path d="m325.036 11.796c-7.31-4.667-16.676-4.831-24.051-.268-28.223 17.46-59.239 17.218-93.136-1.291-7.203-3.933-15.99-3.591-22.931.79l-84.318 53.211 8.253 104.509v88.71 238.31c0 2.483 2.012 4.495 4.495 4.495h281.067c2.482 0 4.495-2.012 4.495-4.495v-238.31-88.71l8.285-104.507z" fill="#fea95c"/><path d="m328.929 446.085c-97.933 0-177.323-79.39-177.323-177.323v-65.482-88.71l-6.206-78.604-44.8 28.272 8.253 104.509v88.71 242.805h290.057v-54.177z" fill="#fe9738"/><path d="m196.721 7.498c3.82-.06 7.66.85 11.13 2.74 33.89 18.51 64.91 18.75 93.13 1.29 3.05-1.89 6.44-2.97 9.89-3.25l.13 1.45c-1.04 30.65-26.21 55.18-57.12 55.18-15.57 0-29.69-6.23-40-16.33-10.3-10.1-16.8-24.07-17.14-39.56z" fill="#fe860a"/><path d="m325.031 11.798 12.18 7.77c-5.76 40.83-40.94 72.34-83.33 72.34-42.23 0-77.29-31.27-83.26-71.86l14.3-9.02c3.6-2.27 7.69-3.46 11.8-3.53l.02 1.52c.34 15.49 6.84 29.46 17.14 39.56 10.31 10.1 24.43 16.33 40 16.33 30.91 0 56.08-24.53 57.12-55.18l-.13-1.45c4.88-.41 9.87.78 14.16 3.52z" fill="#6cf5c2"/><path d="m486.109 203.204-68.481-138.157c-1.444-2.913-3.656-5.378-6.397-7.128l-82.16-52.445c-9.734-6.214-22.308-6.341-32.032-.324-26.138 16.17-54.137 15.682-85.596-1.496-9.556-5.218-21.253-4.824-30.527 1.029l-14.171 8.943c-.017.01-.032.021-.049.031l-70.099 44.238c-2.777 1.753-5.016 4.235-6.474 7.177l-68.469 138.132c-2.916 5.882-.734 13.041 4.965 16.298l74.734 42.705v233.561c0 6.614 5.381 11.995 11.995 11.995h281.067c6.614 0 11.995-5.381 11.995-11.995v-80.068c0-4.142-3.358-7.5-7.5-7.5s-7.5 3.358-7.5 7.5v77.063h-275.057v-324.016c0-4.142-3.358-7.5-7.5-7.5s-7.5 3.358-7.5 7.5v76.184l-65.179-37.245 67.389-135.953c.234-.473.594-.872 1.04-1.153l60.931-38.453c3.435 12.411 9.481 24.031 17.811 34.068 1.483 1.788 3.621 2.71 5.775 2.71 1.688 0 3.386-.566 4.786-1.729 3.188-2.646 3.627-7.374.982-10.561-7.955-9.586-13.426-20.886-15.988-32.923l10.02-6.324c.312-.197.631-.38.953-.552 1.967 14.061 8.467 27.034 18.764 37.121 12.156 11.909 28.225 18.468 45.245 18.468 16.881 0 32.855-6.467 44.979-18.209 10.486-10.156 17.115-23.312 19.067-37.58 1.064.381 2.097.878 3.073 1.501l7.955 5.078c-7.241 35.208-38.699 61.209-75.074 61.209-13.312 0-26.45-3.5-37.993-10.12-3.594-2.061-8.177-.819-10.237 2.774-2.061 3.593-.818 8.177 2.774 10.237 13.812 7.921 29.53 12.108 45.456 12.108 41.567 0 77.764-28.403 88.448-67.672l60.83 38.829c.44.282.796.678 1.028 1.146l67.401 135.978-65.179 37.245v-76.184c0-4.142-3.358-7.5-7.5-7.5s-7.5 3.358-7.5 7.5v216.955c0 4.142 3.358 7.5 7.5 7.5s7.5-3.358 7.5-7.5v-123.493l74.734-42.705c5.699-3.257 7.881-10.416 4.965-16.298zm-232.228-145.799c-13.071 0-25.412-5.037-34.748-14.183-7.274-7.127-12.08-16.127-13.981-25.927 34.676 18.644 67.282 19.413 96.98 2.28-5.27 21.868-24.818 37.83-48.251 37.83z"/></svg>